<svg version="1.1" xmlns="http://www.w3.org/2000/svg" xmlns:xlink="http://www.w3.org/1999/xlink" viewBox="0 0 172 172"><g fill="none" fill-rule="nonzero" stroke="none" stroke-width="1" stroke-linecap="butt" stroke-linejoin="miter" stroke-miterlimit="10" stroke-dasharray="" stroke-dashoffset="0" font-family="none" font-weight="none" font-size="none" text-anchor="none" style="mix-blend-mode: normal"><path d="M0,172v-172h172v172z" fill="none"></path><g fill="#5f6368"><path d="M86,103.91667c-9.87925,0 -17.91667,-8.03742 -17.91667,-17.91667c0,-9.87925 8.03742,-17.91667 17.91667,-17.91667c9.87925,0 17.91667,8.03742 17.91667,17.91667c0,9.87925 -8.03742,17.91667 -17.91667,17.91667zM129,103.91667c-9.87925,0 -17.91667,-8.03742 -17.91667,-17.91667c0,-9.87925 8.03742,-17.91667 17.91667,-17.91667c9.87925,0 17.91667,8.03742 17.91667,17.91667c0,9.87925 -8.03742,17.91667 -17.91667,17.91667zM43,103.91667c-9.87925,0 -17.91667,-8.03742 -17.91667,-17.91667c0,-9.87925 8.03742,-17.91667 17.91667,-17.91667c9.87925,0 17.91667,8.03742 17.91667,17.91667c0,9.87925 -8.03742,17.91667 -17.91667,17.91667zM86,61.017c-9.87925,0 -17.91667,-8.03742 -17.91667,-17.91667c0,-9.87925 8.03742,-17.91667 17.91667,-17.91667c9.87925,0 17.91667,8.03742 17.91667,17.91667c0,9.87925 -8.03742,17.91667 -17.91667,17.91667zM129,60.91667c-9.87925,0 -17.91667,-8.03742 -17.91667,-17.91667c0,-9.87925 8.03742,-17.91667 17.91667,-17.91667c9.87925,0 17.91667,8.03742 17.91667,17.91667c0,9.87925 -8.03742,17.91667 -17.91667,17.91667zM43,60.91667c-9.87925,0 -17.91667,-8.03742 -17.91667,-17.91667c0,-9.87925 8.03742,-17.91667 17.91667,-17.91667c9.87925,0 17.91667,8.03742 17.91667,17.91667c0,9.87925 -8.03742,17.91667 -17.91667,17.91667zM86,147.017c-9.87925,0 -17.91667,-8.03742 -17.91667,-17.91667c0,-9.87925 8.03742,-17.91667 17.91667,-17.91667c9.87925,0 17.91667,8.03742 17.91667,17.91667c0,9.87925 -8.03742,17.91667 -17.91667,17.91667zM129,146.91667c-9.87925,0 -17.91667,-8.03742 -17.91667,-17.91667c0,-9.87925 8.03742,-17.91667 17.91667,-17.91667c9.87925,0 17.91667,8.03742 17.91667,17.91667c0,9.87925 -8.03742,17.91667 -17.91667,17.91667zM43,146.91667c-9.87925,0 -17.91667,-8.03742 -17.91667,-17.91667c0,-9.87925 8.03742,-17.91667 17.91667,-17.91667c9.87925,0 17.91667,8.03742 17.91667,17.91667c0,9.87925 -8.03742,17.91667 -17.91667,17.91667z"></path></g></g></svg>